<?xml version="1.0" encoding="utf-8"?>
<!-- Generator: Adobe Illustrator 26.0.1, SVG Export Plug-In . SVG Version: 6.00 Build 0)  -->
<svg version="1.2" baseProfile="tiny" id="Layer_1" xmlns="http://www.w3.org/2000/svg" xmlns:xlink="http://www.w3.org/1999/xlink"
	 x="0px" y="0px" viewBox="0 0 841.89 595.28" overflow="visible" xml:space="preserve">
<g>
	<g>
		<g>
			<path fill="#ffffff" d="M339.19,343.22c0,5.44-4.43,9.87-9.87,9.87h-13.38c-5.44,0-9.87-4.43-9.87-9.87v-122.2h-20.68v122.2
				c0,16.84,13.71,30.55,30.55,30.55h13.38c16.85,0,30.55-13.71,30.55-30.55v-43.03l-20.68-8.29V343.22z"/>
			<polygon fill="#ffffff" points="339.19,278.47 359.87,286.74 359.87,221.02 339.19,221.02 			"/>
			<polygon fill="#ffffff" points="403.96,317.93 374.72,306.16 362.57,374.09 383.58,374.09 391.39,330.41 403.96,335.29 
				416.53,330.41 424.34,374.09 445.35,374.09 433.2,306.16 			"/>
			<path fill="#ffffff" d="M403.94,260.64l6.81,41.17l19.6-7.93l-10.11-60.17c-1.31-7.33-7.67-12.66-15.12-12.66h-2.31
				c-7.45,0-13.81,5.32-15.13,12.67l-10.96,59.85l19.61,7.89L403.94,260.64z"/>
			<path fill="#ffffff" d="M486.26,221.05h-4.05c-16.85,0-30.55,13.71-30.55,30.55v33.68l20.68-8.37V251.6
				c0-5.44,4.43-9.87,9.87-9.87h4.05c5.44,0,9.87,4.43,9.87,9.87v23c0,3.82-2.4,7.3-5.97,8.66l-38.49,15.47v75.36h20.68v-61.91
				l25.17-9.59c11.54-4.39,19.29-15.64,19.29-27.99v-23C516.81,234.75,503.11,221.05,486.26,221.05z"/>
		</g>
	</g>
	<g>
		<path fill="#ffffff" d="M482.44,366.96c-2.02,0-3.67,1.65-3.67,3.67c0,2,1.65,3.63,3.67,3.63c2,0,3.63-1.63,3.63-3.63
			C486.07,368.64,484.41,366.96,482.44,366.96z"/>
		<path fill="#ffffff" d="M495.58,343.13h-2.15c-1.21,0-1.88,0.67-1.88,1.88v27.15c0,1.21,0.67,1.88,1.88,1.88h2.15
			c1.21,0,1.88-0.67,1.88-1.88v-27.15C497.46,343.8,496.79,343.13,495.58,343.13z"/>
		<path fill="#ffffff" d="M507.54,351.89h-2.15c-1.21,0-1.88,0.67-1.88,1.88v18.39c0,1.21,0.67,1.88,1.88,1.88h2.15
			c1.21,0,1.88-0.67,1.88-1.88v-18.39C509.42,352.56,508.75,351.89,507.54,351.89z"/>
		<path fill="#ffffff" d="M506.49,341.82c-2.12,0-3.85,1.73-3.85,3.85s1.73,3.85,3.85,3.85c2.12,0,3.85-1.73,3.85-3.85
			S508.61,341.82,506.49,341.82z"/>
		<path fill="#ffffff" d="M533.07,351.89h-2.32c-1.18,0-2.03,0.6-2.44,1.75l-4.61,13.58l-4.61-13.58c-0.41-1.14-1.25-1.75-2.44-1.75
			h-2.32c-0.61,0-1.02,0.16-1.24,0.47c-0.22,0.32-0.23,0.77-0.01,1.36l6.79,18.57c0.41,1.13,1.29,1.75,2.48,1.75h2.71
			c1.2,0,2.08-0.62,2.48-1.75l6.79-18.57c0.21-0.59,0.21-1.05-0.01-1.36C534.1,352.05,533.68,351.89,533.07,351.89z"/>
		<path fill="#ffffff" d="M556.5,362.53c-0.04-5.23-3.15-10.85-9.89-10.85c-5.94,0-9.93,4.54-9.93,11.29
			c0,6.86,4.4,11.29,11.2,11.29c2.01,0,4.04-0.38,5.87-1.1c0.52-0.2,0.87-0.51,1.01-0.91c0.15-0.43,0.05-0.95-0.29-1.51l-0.57-1.01
			c-0.41-0.69-0.93-1.02-1.6-1.02c-0.29,0-0.65,0.08-1.05,0.23c-1.08,0.39-2.09,0.56-3.37,0.56c-1.18,0-5.01-0.37-5.3-5.09h11.96
			C555.8,364.4,556.5,363.74,556.5,362.53z M546.61,356.43c2.15,0,3.8,1.58,3.98,3.78h-7.96
			C542.8,358.01,544.46,356.43,546.61,356.43z"/>
	</g>
</g>
</svg>
